<?xml version="1.0" encoding="utf-8"?>
<!-- Generator: Adobe Illustrator 25.0.0, SVG Export Plug-In . SVG Version: 6.00 Build 0)  -->
<svg version="1.1" id="Layer_1" xmlns="http://www.w3.org/2000/svg" xmlns:xlink="http://www.w3.org/1999/xlink" x="0px" y="0px"
	 viewBox="0 0 100 100" style="enable-background:new 0 0 100 100;" xml:space="preserve">
<style type="text/css">
	.st0{fill:none;}
	.st1{opacity:0.8;fill:#3A84DB;enable-background:new    ;}
	.st2{fill:none;stroke:#333333;stroke-width:2.5;stroke-linecap:round;stroke-linejoin:round;stroke-miterlimit:10;}
	.st3{fill:none;stroke:#333333;stroke-width:2.5;stroke-linecap:round;stroke-linejoin:round;stroke-miterlimit:9.9999;}
</style>
<rect y="0" class="st0" width="100" height="100"/>
<circle class="st1" cx="78.9" cy="21.1" r="21.1"/>
<g>
	<path class="st2" d="M72.6,71.9v11.7c0,3.5-2.8,6.3-6.3,6.3"/>
	<path class="st2" d="M66.3,90H33.1c-3.5,0-6.3-2.8-6.3-6.3V16.3c0-3.5,2.8-6.3,6.3-6.3h33.2c3.5,0,6.3,2.8,6.3,6.3v34.1"/>
	<line class="st2" x1="26.7" y1="19.1" x2="72.6" y2="19.1"/>
	<line class="st2" x1="72.6" y1="80.9" x2="26.7" y2="80.9"/>
	<path class="st2" d="M56.9,54.2H42.4c-3.9,0-7.1-3.2-7.1-7.1s3.2-7.1,7.1-7.1h14.5c3.9,0,7.1,3.2,7.1,7.1c0,1-0.2,1.9-0.6,2.8"/>
	<path class="st2" d="M74.3,49l-6.1,6.1l-7-7c-1.4-1.4-3.7-1.4-5.1,0c-1.4,1.4-1.4,3.7,0,5.1l7,7l3,3h-2.9c-2,0-3.6,1.6-3.6,3.6
		c0,2,1.6,3.6,3.6,3.6l10.2,0l3.4,3.4l3.4-3.4l8.9-8.9l-7.1-11.7L74.3,49z"/>
	<rect x="76.6" y="66.7" transform="matrix(0.707 -0.7072 0.7072 0.707 -24.6536 80.8199)" class="st3" width="17.3" height="6.9"/>
</g>
</svg>
